PLOT

After his family is killed by a terrorist act, a firefighter goes in search of the one responsible.
 
http://www.imdb.com/title/tt0233469/

Encoded By .......: BigPerm1828
Runtime ..........: 1h 48mn
File Size ........: 1.18 GB
Resolution .......: 704x396
IMDb URL .........: http://www.imdb.com/title/tt0233469/
Genre ............: Action,Thriller
Language .........: English
Video
ID : 0
Format : MPEG-4 Visual
Format profile : Advanced Simple@L5
Format settings, BVOP : Yes
Format settings, QPel : No
Format settings, GMC : No warppoints
Format settings, Matrix : Default (H.263)
Codec ID : XVID
Codec ID/Hint : XviD
Duration : 1h 48mn
Bit rate : 57.5 Kbps
Width : 704 pixels
Height : 396 pixels
Display aspect ratio : 16:9
Frame rate : 23.976 fps
Color space : YUV
Chroma subsampling : 4:2:0
Bit depth : 8 bits
Scan type : Progressive
Compression mode : Lossy
Bits/(Pixel*Frame) : 0.009
Stream size : 44.7 MiB (4%)
Writing library : XviD 1.2.1 (UTC 2008-12-04)

Audio
ID : 1
Format : AC-3
Format/Info : Audio Coding 3
Codec ID : 2000
Duration : 1h 48mn
Bit rate mode : Constant
Bit rate : 448 Kbps
Channel(s) : 6 channels
Sampling rate : 48.0 KHz
Bit depth : 16 bits
Compression mode : Lossy
Stream size : 348 MiB (29%)
Alignment : Aligned on interleaves
 
http://leetleech.org/images/88888456315731321494.png
 
http://leetleech.org/images/61445621347219267180.png
 
http://leetleech.org/images/07161257402400404525.png
 
http://leetleech.org/images/38216491727147603596.png
 
http://leetleech.org/images/39600911682843881824.png